custom-analysis
version=1
nRows=4
nColumns=98
inDegrees=no

This file contains tibia displacement and acting force.

Units are S.I. units (seconds, meters, Newtons, ...)
Angles are in degrees.

endheader
time	APT	SIT	knee_angle	aACL_R_force	pACL_R_force	aPCL_R_force	pPCL_R_force	aMCL_R_force	mMCL_R_force	pMCL_R_force	aLCL_R_force	mLCL_R_force	pLCL_R_force	aPCL_L_force	pPCL_L_force	aMCL_L_force	aLCL_L_force	aACL_R_length	pACL_R_length	aPCL_R_length	pPCL_R_length	aMCL_R_length	mMCL_R_length	pMCL_R_length	aLCL_R_length	mLCL_R_length	pLCL_R_length	aPCL_L_length	pPCL_L_length	aMCL_L_length	aLCL_L_length	aACL_R_strain	pACL_R_strain	aPCL_R_strain	pPCL_R_strain	aMCL_R_strain	mMCL_R_strain	pMCL_R_strain	aLCL_R_strain	mLCL_R_strain	pLCL_R_strain	aPCL_L_strain	pPCL_L_strain	aMCL_L_strain	aLCL_L_strain	femur_lat_meniscii_r.femur_lat_r.force.X	femur_lat_meniscii_r.femur_lat_r.force.Y	femur_lat_meniscii_r.femur_lat_r.force.Z	femur_lat_meniscii_r.femur_lat_r.torque.X	femur_lat_meniscii_r.femur_lat_r.torque.Y	femur_lat_meniscii_r.femur_lat_r.torque.Z	femur_lat_meniscii_r.meniscus_lat_r.force.X	femur_lat_meniscii_r.meniscus_lat_r.force.Y	femur_lat_meniscii_r.meniscus_lat_r.force.Z	femur_lat_meniscii_r.meniscus_lat_r.torque.X	femur_lat_meniscii_r.meniscus_lat_r.torque.Y	femur_lat_meniscii_r.meniscus_lat_r.torque.Z	femur_med_meniscii_r.femur_med_r.force.X	femur_med_meniscii_r.femur_med_r.force.Y	femur_med_meniscii_r.femur_med_r.force.Z	femur_med_meniscii_r.femur_med_r.torque.X	femur_med_meniscii_r.femur_med_r.torque.Y	femur_med_meniscii_r.femur_med_r.torque.Z	femur_med_meniscii_r.meniscus_med_r.force.X	femur_med_meniscii_r.meniscus_med_r.force.Y	femur_med_meniscii_r.meniscus_med_r.force.Z	femur_med_meniscii_r.meniscus_med_r.torque.X	femur_med_meniscii_r.meniscus_med_r.torque.Y	femur_med_meniscii_r.meniscus_med_r.torque.Z	femur_med_tibia_r.tibia_upper_r.force.X	femur_med_tibia_r.tibia_upper_r.force.Y	femur_med_tibia_r.tibia_upper_r.force.Z	femur_med_tibia_r.tibia_upper_r.torque.X	femur_med_tibia_r.tibia_upper_r.torque.Y	femur_med_tibia_r.tibia_upper_r.torque.Z	femur_med_tibia_r.femur_med_r.force.X	femur_med_tibia_r.femur_med_r.force.Y	femur_med_tibia_r.femur_med_r.force.Z	femur_med_tibia_r.femur_med_r.torque.X	femur_med_tibia_r.femur_med_r.torque.Y	femur_med_tibia_r.femur_med_r.torque.Z	femur_lat_tibia_r.tibia_upper_r.force.X	femur_lat_tibia_r.tibia_upper_r.force.Y	femur_lat_tibia_r.tibia_upper_r.force.Z	femur_lat_tibia_r.tibia_upper_r.torque.X	femur_lat_tibia_r.tibia_upper_r.torque.Y	femur_lat_tibia_r.tibia_upper_r.torque.Z	femur_lat_tibia_r.femur_lat_r.force.X	femur_lat_tibia_r.femur_lat_r.force.Y	femur_lat_tibia_r.femur_lat_r.force.Z	femur_lat_tibia_r.femur_lat_r.torque.X	femur_lat_tibia_r.femur_lat_r.torque.Y	femur_lat_tibia_r.femur_lat_r.torque.Z	femur_lat_meniscii_force_r	femur_med_meniscii_force_r	femur_lat_tibia_force_r	femur_med_tibia_force_r
      0.06991635	      0.00821004	      0.00382771	     13.23548829	     99.69884921	     92.38583749	      0.00000000	      0.00000000	      0.00000000	    -12.66125492	    -25.96044810	      0.00000000	      0.00000000	      0.00000000	      0.00000000	      0.00000000	      0.00000001	      0.00000000	      0.03432809	      0.02774636	      0.02703215	      0.02727104	      0.05625390	      0.06006794	      0.06121620	      0.05262752	      0.05065401	      0.04812448	      0.01525851	      0.01651186	      0.06550154	      0.04489616	      0.10716138	      0.10725438	     -0.13066764	     -0.08755290	     -0.06285676	      0.00458975	      0.04236817	     -0.05984012	     -0.10058118	     -0.08058841	      0.00000079	     -0.32847694	      0.00000060	     -0.00000086	     15.00418554	     57.19118341	      3.60202067	     -2.84586394	      0.36504565	      6.41011250	    -15.00418554	    -57.19118341	     -3.60202067	      1.65201551	     -0.44264883	     -0.20500069	      5.45182691	     24.16213782	      0.26424889	      0.39052270	     -0.10081423	      2.20325087	     -5.45182691	    -24.16213782	     -0.26424889	     -0.41306907	      0.08094855	      0.07837166	    -13.17154454	   -738.59302351	    116.81323225	    -16.54093687	      0.60095365	      2.92215859	     13.17154454	    738.59302351	   -116.81323225	     63.70435649	      0.28788208	      8.01583981	    -59.31778033	   -652.85136406	   -139.68630392	     21.67484550	     -1.98693613	      0.13605780	     59.31778033	    652.85136406	    139.68630392	    -73.06993134	      0.67954201	     27.79922529	     59.23623550	     24.77097390	    670.25798475	    747.88934689
      0.07107615	      0.00839354	      0.00392546	     13.61772507	    101.64999142	     93.23945047	      0.00000000	      0.00000000	      0.00000000	    -10.96999917	    -25.22753239	      0.00000000	      0.00000000	      0.00000000	      0.00000000	      0.00000000	      0.00000001	      0.00000000	      0.03436918	      0.02776450	      0.02703667	      0.02725407	      0.05627696	      0.06004868	      0.06115420	      0.05260518	      0.05061034	      0.04805481	      0.01525851	      0.01651186	      0.06550154	      0.04489616	      0.10848667	      0.10797829	     -0.13052238	     -0.08812056	     -0.06247256	      0.00426766	      0.04131252	     -0.06023918	     -0.10135663	     -0.08191954	      0.00000079	     -0.32847694	      0.00000060	     -0.00000086	     14.11816330	     57.13036104	      4.39018971	     -3.17674685	      0.34106032	      6.03466828	    -14.11816330	    -57.13036104	     -4.39018971	      1.67992972	     -0.42282604	     -0.15710594	      5.91301128	     24.42469811	      0.47358460	      0.30708413	     -0.11062258	      2.39357053	     -5.91301128	    -24.42469811	     -0.47358460	     -0.40930687	      0.08756034	      0.07216064	    -25.85165335	   -755.98959213	    109.63944595	    -16.53792050	      0.81813628	      2.78581691	     25.85165335	    755.98959213	   -109.63944595	     61.00017707	     -0.00383623	     13.31263370	    -51.78347449	   -629.47688755	   -142.59436598	     21.23871205	     -1.85788688	      0.54788940	     51.78347449	    629.47688755	    142.59436598	    -73.83341178	      0.52176098	     24.45026981	     59.01249404	     25.13471429	    647.49967830	    764.33590750
      0.07223596	      0.00857951	      0.00402383	     14.00450736	    103.16542154	     93.76387667	      0.00000000	      0.00000000	      0.00000000	    -10.10643495	    -25.37640699	      0.00000000	      0.00000000	      0.00000000	      0.00000000	      0.00000000	      0.00000001	      0.00000000	      0.03440998	      0.02778192	      0.02704342	      0.02723867	      0.05630323	      0.06003174	      0.06109399	      0.05258430	      0.05056760	      0.04798567	      0.01525851	      0.01651186	      0.06550154	      0.04489616	      0.10980241	      0.10867366	     -0.13030530	     -0.08863590	     -0.06203484	      0.00398443	      0.04028728	     -0.06061209	     -0.10211539	     -0.08324054	      0.00000079	     -0.32847694	      0.00000060	     -0.00000086	     12.69750145	     57.36784108	      4.25500789	     -3.12356829	      0.30589209	      5.43286061	    -12.69750145	    -57.36784108	     -4.25500789	      1.67846078	     -0.38269090	     -0.08503586	      5.89575934	     24.43103000	      0.26471778	      0.39319015	     -0.11057940	      2.38388249	     -5.89575934	    -24.43103000	     -0.26471778	     -0.41571153	      0.08930994	      0.08068733	    -31.32604950	   -772.06314586	    111.81907749	    -16.90877100	      0.97196139	      2.96310284	     31.32604950	    772.06314586	   -111.81907749	     62.24853802	     -0.13269889	     15.53355691	    -39.00985873	   -610.15124863	   -136.16737671	     20.51413520	     -1.55985195	      1.18010923	     39.00985873	    610.15124863	    136.16737671	    -70.71900976	      0.28862797	     18.89903183	     58.91010800	     25.13374784	    626.37677939	    780.74728860
      0.07339577	      0.00876531	      0.00412314	     14.39526221	    105.00402078	     94.51922893	      0.00000000	      0.00000000	      0.00000000	     -8.69576190	    -24.87786156	      0.00000000	      0.00000000	      0.00000000	      0.00000000	      0.00000000	      0.00000001	      0.00000000	      0.03444948	      0.02779785	      0.02705233	      0.02722473	      0.05633187	      0.06001641	      0.06103479	      0.05256398	      0.05052482	      0.04791606	      0.01525851	      0.01651186	      0.06550154	      0.04489616	      0.11107629	      0.10930945	     -0.13001872	     -0.08910219	     -0.06155776	      0.00372805	      0.03927914	     -0.06097521	     -0.10287498	     -0.08457028	      0.00000079	     -0.32847694	      0.00000060	     -0.00000086	     11.78600601	     57.44534270	      4.58569530	     -3.26409497	      0.28200587	      5.04618899	    -11.78600601	    -57.44534270	     -4.58569530	      1.69173653	     -0.35949557	     -0.03424484	      6.04026495	     24.50673616	      0.17368196	      0.43014380	     -0.11239841	      2.44097059	     -6.04026495	    -24.50673616	     -0.17368196	     -0.41785244	      0.09146673	      0.08504954	    -42.90360106	   -783.72263974	    109.09702168	    -17.00277940	      1.19507313	      2.87591552	     42.90360106	    783.72263974	   -109.09702168	     61.32862554	     -0.39167130	     20.32712501	    -31.94035803	   -590.87891940	   -134.27990425	     19.97145588	     -1.41918421	      1.56918570	     31.94035803	    590.87891940	    134.27990425	    -69.52461527	      0.15768110	     15.76878650	     58.82096511	     25.24074253	    606.78593964	    792.44183078
